# xmcd
#
# Track frame offsets:
#	150
#	17448
#	36579
#	52008
#	72871
#	90158
#	104241
#	117602
#	136914
#	155871
#	172437
#	188463
#	205801
#
# Disc length: 2955 seconds
#
# Revision: 0
# Processed by: cddbd v1.5.2PL0 Copyright (c) Steve Scherf et al.
# Submitted via: EasyCDDAExtractor 2010.6.0.0
#
DISCID=bf0b890d
DTITLE=Adelman, Todd and The Love Handles - Todd Adelman and The love handles [200
DTITLE=9]
DYEAR=2009
DGENRE=Country
TTITLE0=Sorry
TTITLE1=Hand over your heart
TTITLE2=The time was wrong
TTITLE3=Cry in the rain
TTITLE4=Ballad of Jonny Boot
TTITLE5=Goin' through the motions
TTITLE6=Need you badly blues
TTITLE7=Baby's gonna be a country girl
TTITLE8=Long road back home
TTITLE9=I believe in you
TTITLE10=Where the party never ends
TTITLE11=It might as well be me
TTITLE12=One more night in heaven
EXTD=
EXTT0=
EXTT1=
EXTT2=
EXTT3=
EXTT4=
EXTT5=
EXTT6=
EXTT7=
EXTT8=
EXTT9=
EXTT10=
EXTT11=
EXTT12=
PLAYORDER=
